
    <svg viewBox="0 0 1440 446" fill="none" xmlns="http://www.w3.org/2000/svg">
      <g id="Frame_1000002010" clip-path="url(#clip0_211_1071)">
        <path id="Rectangle_15" d="M0 0H1440V446H0V0Z" fill="#0E0042"></path>
        
        <!-- Vector 41 -->
        <path id="Vector_41" opacity="0.1" d="M-99.931 277.589C-269.166 449.097 -516 498.466 -768 430.892V532.718V590.305L2208 643V181.544C2103.33 72.391 1791.9 -86.8224 1383.5 149.551C975.1 385.925 736.5 286.934 593 193.423C477 100.997 159 15.1799 -99.931 277.589Z" fill="url(#paint0_linear_211_1071)">
          <animateTransform attributeName="transform" type="translate" values="0,0; 500,50; 0,0" dur="10s" repeatCount="indefinite" keyTimes="0; 0.5; 1" />
        </path>
    
        <!-- Vector 43 -->
        <path id="Vector_43" opacity="0.1" d="M-725.931 275.754C-895.166 388.515 -1142 420.974 -1394 376.546V443.493V481.355L1582 516V212.608C1477.33 140.843 1165.9 36.1655 757.5 191.573C349.1 346.981 110.5 281.898 -33 220.418C-149 159.65 -467 103.229 -725.931 275.754Z" fill="url(#paint1_linear_211_1071)">
          <animateTransform attributeName="transform" type="translate" values="0,0; 100,100; 0,0" dur="10s" repeatCount="indefinite" keyTimes="0; 0.5; 1" />
        </path>
    
        <!-- Vector 42 -->
        <path id="Vector_42" opacity="0.1" d="M1216.16 278.589C1393.69 450.097 1652.64 499.466 1917 431.892V533.718V591.305L-1205 644V182.544C-1095.2 73.391 -768.487 -85.8224 -340.051 150.551C88.385 386.925 338.691 287.934 489.23 194.423C610.921 101.997 944.522 16.1799 1216.16 278.589Z" fill="url(#paint2_linear_211_1071)">
          <animateTransform attributeName="transform" type="translate" values="0,0; -500,-50; 0,0" dur="10s" repeatCount="indefinite" keyTimes="0; 0.5; 1" />
        </path>
      </g>
      
      <defs>
        <linearGradient id="paint0_linear_211_1071" x1="-87.5" y1="102.442" x2="-87.5" y2="532.718" gradientUnits="userSpaceOnUse">
          <stop stop-color="white"></stop>
          <stop offset="1" stop-color="white" stop-opacity="0"></stop>
        </linearGradient>
        <linearGradient id="paint1_linear_211_1071" x1="-713.5" y1="160.601" x2="-713.5" y2="443.493" gradientUnits="userSpaceOnUse">
          <stop stop-color="white"></stop>
          <stop offset="1" stop-color="white" stop-opacity="0"></stop>
        </linearGradient>
        <linearGradient id="paint2_linear_211_1071" x1="1203.12" y1="103.442" x2="1203.12" y2="533.718" gradientUnits="userSpaceOnUse">
          <stop stop-color="white"></stop>
          <stop offset="1" stop-color="white" stop-opacity="0"></stop>
        </linearGradient>
        <clipPath id="clip0_211_1071">
          <rect width="1440" height="446" fill="white"></rect>
        </clipPath>
      </defs>
    </svg>
    
