<svg width="17" height="18" viewBox="0 0 17 18" fill="none" xmlns="http://www.w3.org/2000/svg">
<path d="M15.4968 6.55319V3.35569C15.4968 2.36263 15.046 1.96118 13.9262 1.96118H11.0808C9.961 1.96118 9.51025 2.36263 9.51025 3.35569V6.54615C9.51025 7.54625 9.961 7.94065 11.0808 7.94065H13.9262C15.046 7.94769 15.4968 7.54625 15.4968 6.55319Z" stroke="white" stroke-width="1.05644" stroke-linecap="round" stroke-linejoin="round"/>
<path d="M15.4968 14.4742V11.6288C15.4968 10.509 15.046 10.0582 13.9262 10.0582H11.0808C9.961 10.0582 9.51025 10.509 9.51025 11.6288V14.4742C9.51025 15.594 9.961 16.0447 11.0808 16.0447H13.9262C15.046 16.0447 15.4968 15.594 15.4968 14.4742Z" stroke="white" stroke-width="1.05644" stroke-linecap="round" stroke-linejoin="round"/>
<path d="M7.39813 6.55319V3.35569C7.39813 2.36263 6.94738 1.96118 5.82755 1.96118H2.9822C1.86237 1.96118 1.41162 2.36263 1.41162 3.35569V6.54615C1.41162 7.54625 1.86237 7.94065 2.9822 7.94065H5.82755C6.94738 7.94769 7.39813 7.54625 7.39813 6.55319Z" stroke="white" stroke-width="1.05644" stroke-linecap="round" stroke-linejoin="round"/>
<path d="M7.39813 14.4742V11.6288C7.39813 10.509 6.94738 10.0582 5.82755 10.0582H2.9822C1.86237 10.0582 1.41162 10.509 1.41162 11.6288V14.4742C1.41162 15.594 1.86237 16.0447 2.9822 16.0447H5.82755C6.94738 16.0447 7.39813 15.594 7.39813 14.4742Z" stroke="white" stroke-width="1.05644" stroke-linecap="round" stroke-linejoin="round"/>
</svg>
