<svg width="54" height="54" viewBox="0 0 54 54" fill="none" xmlns="http://www.w3.org/2000/svg">
<g filter="url(#filter0_d_191_1658)">
<rect x="8" y="6" width="38" height="38" rx="19" fill="white"/>
<path d="M36 30V22C36 20.8954 35.1046 20 34 20H31.5C30.9477 20 30.5 19.5523 30.5 19C30.5 18.4477 30.0523 18 29.5 18H24.5C23.9477 18 23.5 18.4477 23.5 19C23.5 19.5523 23.0523 20 22.5 20H20C18.8954 20 18 20.8954 18 22V30C18 31.1046 18.8954 32 20 32H34C35.1046 32 36 31.1046 36 30Z" stroke="#111111" stroke-width="1.5"/>
<path d="M30 26C30 27.6569 28.6569 29 27 29C25.3431 29 24 27.6569 24 26C24 24.3431 25.3431 23 27 23C28.6569 23 30 24.3431 30 26Z" stroke="#111111" stroke-width="1.5"/>
</g>
<defs>
<filter id="filter0_d_191_1658" x="0" y="0" width="54" height="54" filterUnits="userSpaceOnUse" color-interpolation-filters="sRGB">
<feFlood flood-opacity="0" result="BackgroundImageFix"/>
<feColorMatrix in="SourceAlpha" type="matrix" values="0 0 0 0 0 0 0 0 0 0 0 0 0 0 0 0 0 0 127 0" result="hardAlpha"/>
<feMorphology radius="2" operator="dilate" in="SourceAlpha" result="effect1_dropShadow_191_1658"/>
<feOffset dy="2"/>
<feGaussianBlur stdDeviation="3"/>
<feColorMatrix type="matrix" values="0 0 0 0 0 0 0 0 0 0 0 0 0 0 0 0 0 0 0.15 0"/>
<feBlend mode="normal" in2="BackgroundImageFix" result="effect1_dropShadow_191_1658"/>
<feBlend mode="normal" in="SourceGraphic" in2="effect1_dropShadow_191_1658" result="shape"/>
</filter>
</defs>
</svg>
