<svg width="20" height="20" viewBox="0 0 20 20" fill="none" xmlns="http://www.w3.org/2000/svg">
<g clip-path="url(#clip0_191_1675)">
<path opacity="0.15" fill-rule="evenodd" clip-rule="evenodd" d="M10.5264 14.2105C10.5264 16.8244 8.40552 18.9473 5.7883 18.9473C3.17363 18.9473 1.05273 16.8244 1.05273 14.2105C1.05273 11.5965 3.17363 9.47363 5.7883 9.47363C8.40552 9.47363 10.5264 11.5965 10.5264 14.2105Z" fill="black"/>
<path d="M15.7896 4.21063L17.8948 6.31589L14.7369 9.47379L12.6317 7.36852M9.14902 10.8513L18.9475 1.05273M10.5264 14.2106C10.5264 16.8246 8.40552 18.9475 5.7883 18.9475C3.17363 18.9475 1.05273 16.8246 1.05273 14.2106C1.05273 11.5967 3.17363 9.47379 5.7883 9.47379C8.40552 9.47379 10.5264 11.5967 10.5264 14.2106Z" stroke="black" stroke-width="1.5" stroke-linecap="round" stroke-linejoin="round"/>
</g>
<defs>
<clipPath id="clip0_191_1675">
<rect width="20" height="20" fill="white"/>
</clipPath>
</defs>
</svg>
