<svg width="17" height="18" viewBox="0 0 17 18" fill="none" xmlns="http://www.w3.org/2000/svg">
<path d="M15.4482 5.26453H11.3721" stroke="white" stroke-width="1.22285" stroke-miterlimit="10" stroke-linecap="round" stroke-linejoin="round"/>
<path d="M4.5778 5.26453H1.86035" stroke="white" stroke-width="1.22285" stroke-miterlimit="10" stroke-linecap="round" stroke-linejoin="round"/>
<path d="M7.29574 7.64128C8.60894 7.64128 9.6735 6.57671 9.6735 5.26351C9.6735 3.9503 8.60894 2.88574 7.29574 2.88574C5.98253 2.88574 4.91797 3.9503 4.91797 5.26351C4.91797 6.57671 5.98253 7.64128 7.29574 7.64128Z" stroke="white" stroke-width="1.22285" stroke-miterlimit="10" stroke-linecap="round" stroke-linejoin="round"/>
<path d="M15.4479 12.7355H12.7305" stroke="white" stroke-width="1.22285" stroke-miterlimit="10" stroke-linecap="round" stroke-linejoin="round"/>
<path d="M5.93652 12.7355H1.86035" stroke="white" stroke-width="1.22285" stroke-miterlimit="10" stroke-linecap="round" stroke-linejoin="round"/>
<path d="M10.0125 15.1154C11.3257 15.1154 12.3903 14.0508 12.3903 12.7376C12.3903 11.4244 11.3257 10.3599 10.0125 10.3599C8.69933 10.3599 7.63477 11.4244 7.63477 12.7376C7.63477 14.0508 8.69933 15.1154 10.0125 15.1154Z" stroke="white" stroke-width="1.22285" stroke-miterlimit="10" stroke-linecap="round" stroke-linejoin="round"/>
</svg>
