<svg width="24" height="24" viewBox="0 0 24 24" fill="none" xmlns="http://www.w3.org/2000/svg">
<path d="M11.5 20.2518C11.5 20.4507 11.421 20.6415 11.2803 20.7822C11.1397 20.9228 10.9489 21.0018 10.75 21.0018H4.75C4.55109 21.0018 4.36032 20.9228 4.21967 20.7822C4.07902 20.6415 4 20.4507 4 20.2518V3.75183C4 3.55292 4.07902 3.36215 4.21967 3.2215C4.36032 3.08085 4.55109 3.00183 4.75 3.00183H10.75C10.9489 3.00183 11.1397 3.08085 11.2803 3.2215C11.421 3.36215 11.5 3.55292 11.5 3.75183C11.5 3.95074 11.421 4.14151 11.2803 4.28216C11.1397 4.42281 10.9489 4.50183 10.75 4.50183H5.5V19.5018H10.75C10.9489 19.5018 11.1397 19.5808 11.2803 19.7215C11.421 19.8622 11.5 20.0529 11.5 20.2518ZM21.7806 11.4712L18.0306 7.72121C17.8899 7.58048 17.699 7.50141 17.5 7.50141C17.301 7.50141 17.1101 7.58048 16.9694 7.72121C16.8286 7.86194 16.7496 8.05281 16.7496 8.25183C16.7496 8.45085 16.8286 8.64173 16.9694 8.78246L19.4397 11.2518H10.75C10.5511 11.2518 10.3603 11.3308 10.2197 11.4715C10.079 11.6122 10 11.8029 10 12.0018C10 12.2007 10.079 12.3915 10.2197 12.5322C10.3603 12.6728 10.5511 12.7518 10.75 12.7518H19.4397L16.9694 15.2212C16.8286 15.3619 16.7496 15.5528 16.7496 15.7518C16.7496 15.9509 16.8286 16.1417 16.9694 16.2825C17.1101 16.4232 17.301 16.5022 17.5 16.5022C17.699 16.5022 17.8899 16.4232 18.0306 16.2825L21.7806 12.5325C21.8504 12.4628 21.9057 12.3801 21.9434 12.289C21.9812 12.198 22.0006 12.1004 22.0006 12.0018C22.0006 11.9033 21.9812 11.8057 21.9434 11.7146C21.9057 11.6236 21.8504 11.5409 21.7806 11.4712Z" fill="#FF0000"/>
</svg>
