<svg width="24" height="24" viewBox="0 0 24 24" fill="none" xmlns="http://www.w3.org/2000/svg">
<path opacity="0.15" d="M4 8C4 6.89543 4.89543 6 6 6H18C19.1046 6 20 6.89543 20 8V12C20 13.1046 19.1046 14 18 14H6C4.89543 14 4 13.1046 4 12V8Z" fill="black"/>
<path d="M20 12V18C20 19.1046 19.1046 20 18 20H6C4.89543 20 4 19.1046 4 18V12M20 12C20 13.1046 19.1046 14 18 14H12H6C4.89543 14 4 13.1046 4 12M20 12V8C20 6.89543 19.1046 6 18 6H6C4.89543 6 4 6.89543 4 8V12M15 6V5C15 3.89543 14.1046 3 13 3H11C9.89543 3 9 3.89543 9 5V6" stroke="black" stroke-width="1.5" stroke-linecap="round" stroke-linejoin="round"/>
<circle cx="18.5" cy="20" r="4" fill="black"/>
<path fill-rule="evenodd" clip-rule="evenodd" d="M18.5 17C18.7761 17 19 17.2239 19 17.5V19.5H21C21.2761 19.5 21.5 19.7239 21.5 20C21.5 20.2761 21.2761 20.5 21 20.5H19V22.5C19 22.7761 18.7761 23 18.5 23C18.2239 23 18 22.7761 18 22.5V20.5H16C15.7239 20.5 15.5 20.2761 15.5 20C15.5 19.7239 15.7239 19.5 16 19.5H18V17.5C18 17.2239 18.2239 17 18.5 17Z" fill="white"/>
</svg>
