<svg width="25" height="24" viewBox="0 0 25 24" fill="none" xmlns="http://www.w3.org/2000/svg">
<path opacity="0.35" d="M4.5 8C4.5 6.89543 5.39543 6 6.5 6H18.5C19.6046 6 20.5 6.89543 20.5 8V12C20.5 13.1046 19.6046 14 18.5 14H6.5C5.39543 14 4.5 13.1046 4.5 12V8Z" fill="white"/>
<path d="M20.5 12V18C20.5 19.1046 19.6046 20 18.5 20H6.5C5.39543 20 4.5 19.1046 4.5 18V12M20.5 12C20.5 13.1046 19.6046 14 18.5 14H12.5H6.5C5.39543 14 4.5 13.1046 4.5 12M20.5 12V8C20.5 6.89543 19.6046 6 18.5 6H6.5C5.39543 6 4.5 6.89543 4.5 8V12M15.5 6V5C15.5 3.89543 14.6046 3 13.5 3H11.5C10.3954 3 9.5 3.89543 9.5 5V6" stroke="white" stroke-width="1.5" stroke-linecap="round" stroke-linejoin="round"/>
<circle cx="19" cy="20" r="4" fill="white"/>
<path fill-rule="evenodd" clip-rule="evenodd" d="M19 17C19.2761 17 19.5 17.2239 19.5 17.5V19.5H21.5C21.7761 19.5 22 19.7239 22 20C22 20.2761 21.7761 20.5 21.5 20.5H19.5V22.5C19.5 22.7761 19.2761 23 19 23C18.7239 23 18.5 22.7761 18.5 22.5V20.5H16.5C16.2239 20.5 16 20.2761 16 20C16 19.7239 16.2239 19.5 16.5 19.5H18.5V17.5C18.5 17.2239 18.7239 17 19 17Z" fill="#2500B0"/>
</svg>
