<svg width="23" height="25" viewBox="0 0 23 25" fill="none" xmlns="http://www.w3.org/2000/svg">
<path fill-rule="evenodd" clip-rule="evenodd" d="M12 1C10.4812 1 9.25 2.23122 9.25 3.75V3.90583L9.24317 3.9924C9.22119 4.1345 9.1473 4.264 9.03727 4.35624L8.9805 4.39625L8.92601 4.40827C8.88534 4.41983 8.84542 4.43422 8.80655 4.45138C8.58371 4.54972 8.32345 4.50253 8.14933 4.33221L8.10151 4.28432C7.58606 3.76829 6.88613 3.47814 6.15625 3.47814C5.42637 3.47814 4.72644 3.76829 4.21063 4.28468C3.69496 4.79977 3.40481 5.49971 3.40481 6.22958C3.40481 6.89864 3.64862 7.54253 4.087 8.04251L4.26599 8.22985C4.4292 8.39678 4.47639 8.65704 4.37804 8.87988C4.27189 9.1632 4.05566 9.31786 3.81106 9.32358L3.75 9.32333C2.23122 9.32333 1 10.5546 1 12.0733C1 13.5921 2.23122 14.8233 3.75 14.8233H3.90583C4.13966 14.8243 4.3539 14.9662 4.44746 15.1844C4.54972 15.4163 4.50253 15.6766 4.33221 15.8507L4.28432 15.8985C3.76829 16.4139 3.47814 17.1139 3.47814 17.8438C3.47814 18.5736 3.76829 19.2736 4.28468 19.7894C4.79977 20.305 5.49971 20.5952 6.22958 20.5952C6.89864 20.5952 7.54253 20.3514 8.04251 19.913L8.22985 19.734C8.39678 19.5708 8.65704 19.5236 8.87988 19.622C9.1632 19.7281 9.31786 19.9443 9.32358 20.1889L9.32333 20.25C9.32333 21.7688 10.5546 23 12.0733 23C13.5921 23 14.8233 21.7688 14.8233 20.25V20.0942C14.8243 19.8603 14.9662 19.6461 15.1844 19.5525C15.4163 19.4503 15.6766 19.4975 15.8507 19.6678L15.8985 19.7157C16.4139 20.2317 17.1139 20.5219 17.8438 20.5219C18.5736 20.5219 19.2736 20.2317 19.7894 19.7153C20.305 19.2002 20.5952 18.5003 20.5952 17.7704C20.5952 17.1014 20.3514 16.4575 19.913 15.9575L19.734 15.7702C19.5708 15.6032 19.5236 15.343 19.622 15.1201C19.7194 14.8928 19.9337 14.7509 20.1712 14.75L20.25 14.75C21.7688 14.75 23 13.5188 23 12C23 10.4812 21.7688 9.25 20.25 9.25H20.0942L20.0076 9.24317C19.8655 9.22119 19.736 9.1473 19.6438 9.03727L19.6028 8.9805L19.5917 8.92601C19.5802 8.88534 19.5658 8.84542 19.5486 8.80655C19.4503 8.58371 19.4975 8.32345 19.6678 8.14933L19.7157 8.10151C20.2317 7.58606 20.5219 6.88613 20.5219 6.15625C20.5219 5.42637 20.2317 4.72644 19.7153 4.21063C19.2002 3.69496 18.5003 3.40481 17.7704 3.40481C17.1014 3.40481 16.4575 3.64862 15.9575 4.087L15.7702 4.26599C15.6032 4.4292 15.343 4.47639 15.1201 4.37804C14.8928 4.28057 14.7509 4.06633 14.75 3.82884L14.75 3.75C14.75 2.23122 13.5188 1 12 1ZM12 2.83333C12.5063 2.83333 12.9167 3.24374 12.9167 3.75V3.8325C12.9205 4.80435 13.499 5.67781 14.3889 6.05921C15.2884 6.45624 16.3494 6.26385 17.0593 5.56946L17.1215 5.50735C17.2938 5.33486 17.5271 5.23814 17.7704 5.23814C18.0137 5.23814 18.247 5.33486 18.419 5.50699C18.5918 5.67965 18.6885 5.91296 18.6885 6.15625C18.6885 6.39954 18.5918 6.63285 18.4197 6.80479L18.3643 6.86015L18.2458 6.99016C17.7177 7.61261 17.5382 8.44854 17.7544 9.22061L17.7933 9.25C17.7933 9.37415 17.8186 9.497 17.8675 9.6111C18.2489 10.501 19.1223 11.0795 20.0905 11.0833L20.25 11.0833C20.7563 11.0833 21.1667 11.4937 21.1667 12C21.1667 12.5063 20.7563 12.9167 20.25 12.9167H20.1675C19.1956 12.9205 18.3222 13.499 17.9408 14.3889C17.5438 15.2884 17.7361 16.3494 18.4305 17.0593L18.4927 17.1215C18.6651 17.2938 18.7619 17.5271 18.7619 17.7704C18.7619 18.0137 18.6651 18.247 18.493 18.419C18.3204 18.5918 18.087 18.6885 17.8438 18.6885C17.6005 18.6885 17.3671 18.5918 17.1952 18.4197L17.1398 18.3643C16.4228 17.6628 15.3617 17.4704 14.4532 17.8714C13.5723 18.2489 12.9939 19.1223 12.99 20.0905L12.99 20.25C12.99 20.7563 12.5796 21.1667 12.0733 21.1667C11.5671 21.1667 11.1567 20.7563 11.1567 20.25V20.1675C11.1345 19.2088 10.5746 18.3715 9.72838 17.9893L9.56642 17.923C8.71162 17.5438 7.65056 17.7361 6.94067 18.4305L6.87849 18.4927C6.70619 18.6651 6.47288 18.7619 6.22958 18.7619C5.98629 18.7619 5.75298 18.6651 5.58104 18.493C5.40819 18.3204 5.31147 18.087 5.31147 17.8438C5.31147 17.6005 5.40819 17.3671 5.58032 17.1952L5.63568 17.1398C6.33719 16.4228 6.52958 15.3617 6.12862 14.4532C5.75114 13.5723 4.87769 12.9939 3.90949 12.99L3.75 12.99C3.24374 12.99 2.83333 12.5796 2.83333 12.0733C2.83333 11.5671 3.24374 11.1567 3.75 11.1567H3.8325C4.7912 11.1345 5.6285 10.5746 6.01074 9.72838L6.07699 9.56642C6.45624 8.71162 6.26385 7.65056 5.56946 6.94067L5.50735 6.87849C5.33486 6.70619 5.23814 6.47288 5.23814 6.22958C5.23814 5.98629 5.33486 5.75298 5.50699 5.58104C5.67965 5.40819 5.91296 5.31147 6.15625 5.31147C6.39954 5.31147 6.63285 5.40819 6.80479 5.58032L6.86015 5.63568L6.99016 5.75417C7.61261 6.28232 8.44854 6.46182 9.22061 6.24564L9.25 6.20667C9.37415 6.20667 9.497 6.18145 9.6111 6.13254C10.501 5.75114 11.0795 4.87769 11.0833 3.90949L11.0833 3.75C11.0833 3.24374 11.4937 2.83333 12 2.83333ZM12 8.33333C9.97496 8.33333 8.33333 9.97496 8.33333 12C8.33333 14.025 9.97496 15.6667 12 15.6667C14.025 15.6667 15.6667 14.025 15.6667 12C15.6667 9.97496 14.025 8.33333 12 8.33333ZM12 10.1667C13.0125 10.1667 13.8333 10.9875 13.8333 12C13.8333 13.0125 13.0125 13.8333 12 13.8333C10.9875 13.8333 10.1667 13.0125 10.1667 12C10.1667 10.9875 10.9875 10.1667 12 10.1667Z" fill="#0A1629"/>
</svg>
