<svg width="20" height="21" viewBox="0 0 20 21" fill="none" xmlns="http://www.w3.org/2000/svg">
<path d="M5.25402 16.3144C5.25402 16.5369 5.18804 16.7544 5.06442 16.9394C4.94081 17.1244 4.76511 17.2686 4.55954 17.3538C4.35397 17.4389 4.12777 17.4612 3.90954 17.4178C3.69131 17.3744 3.49086 17.2672 3.33353 17.1099C3.17619 16.9526 3.06905 16.7521 3.02564 16.5339C2.98223 16.3157 3.00451 16.0895 3.08966 15.8839C3.1748 15.6783 3.319 15.5026 3.504 15.379C3.68901 15.2554 3.90652 15.1894 4.12902 15.1894C4.42739 15.1894 4.71354 15.3079 4.92452 15.5189C5.13549 15.7299 5.25402 16.016 5.25402 16.3144ZM19.504 14.0822V18.9394C19.504 19.3372 19.346 19.7188 19.0647 20.0001C18.7834 20.2814 18.4018 20.4394 18.004 20.4394H4.12902C3.87953 20.4396 3.63048 20.4182 3.38465 20.3757C2.31217 20.18 1.36076 19.5677 0.738363 18.6727C0.115961 17.7776 -0.126819 16.6726 0.0630825 15.5991L2.40683 2.18066C2.44015 1.98676 2.51142 1.80136 2.61656 1.63508C2.72169 1.4688 2.85863 1.32491 3.01951 1.21168C3.18039 1.09844 3.36204 1.01809 3.55405 0.975229C3.74605 0.932367 3.94463 0.927839 4.1384 0.961906L9.27027 1.87691C9.66075 1.94728 10.0074 2.16949 10.2345 2.49489C10.4615 2.8203 10.5503 3.2224 10.4815 3.61316L9.34902 10.0819L15.7062 7.78316C16.0789 7.64855 16.4896 7.66686 16.8488 7.83408C17.208 8.0013 17.4865 8.30384 17.6234 8.67566L19.4103 13.5666C19.4677 13.7327 19.4993 13.9066 19.504 14.0822ZM6.66027 16.771L9.00402 3.35253L3.8909 2.43941L1.54715 15.855C1.42478 16.5374 1.57732 17.2405 1.97146 17.8108C2.3656 18.3811 2.96933 18.7723 3.6509 18.8991C3.98454 18.9589 4.32675 18.9519 4.65764 18.8783C4.98854 18.8048 5.30151 18.6662 5.5784 18.4707C5.86235 18.2732 6.10423 18.0212 6.28995 17.7294C6.47568 17.4376 6.60156 17.1118 6.66027 16.771ZM7.95215 17.7207L18.004 14.0747L16.2153 9.18941L9.0509 11.7863L8.13402 17.0288C8.09326 17.2642 8.03241 17.4956 7.95215 17.7207ZM18.004 15.6694L8.97964 18.9394H18.004V15.6694Z" fill="black"/>
</svg>
