<svg width="20" height="21" viewBox="0 0 20 21" fill="none" xmlns="http://www.w3.org/2000/svg">
<path d="M9.75 0.74939C7.82164 0.74939 5.93657 1.32122 4.33319 2.39256C2.72982 3.4639 1.48013 4.98665 0.742179 6.76823C0.00422452 8.54981 -0.188858 10.5102 0.187348 12.4015C0.563554 14.2928 1.49215 16.0301 2.85571 17.3937C4.21928 18.7572 5.95656 19.6858 7.84787 20.062C9.73919 20.4383 11.6996 20.2452 13.4812 19.5072C15.2627 18.7693 16.7855 17.5196 17.8568 15.9162C18.9282 14.3128 19.5 12.4278 19.5 10.4994C19.4973 7.91437 18.4692 5.436 16.6413 3.60811C14.8134 1.78023 12.335 0.752119 9.75 0.74939ZM4.695 17.015C5.23757 16.1665 5.98501 15.4682 6.86843 14.9844C7.75185 14.5007 8.74283 14.2472 9.75 14.2472C10.7572 14.2472 11.7482 14.5007 12.6316 14.9844C13.515 15.4682 14.2624 16.1665 14.805 17.015C13.3597 18.1391 11.581 18.7493 9.75 18.7493C7.91905 18.7493 6.14032 18.1391 4.695 17.015ZM6.75 9.74939C6.75 9.15605 6.92595 8.57603 7.2556 8.08268C7.58524 7.58933 8.05378 7.20481 8.60195 6.97775C9.15013 6.75069 9.75333 6.69128 10.3353 6.80703C10.9172 6.92279 11.4518 7.20851 11.8713 7.62807C12.2909 8.04763 12.5766 8.58218 12.6924 9.16412C12.8081 9.74606 12.7487 10.3493 12.5216 10.8974C12.2946 11.4456 11.9101 11.9142 11.4167 12.2438C10.9234 12.5734 10.3433 12.7494 9.75 12.7494C8.95436 12.7494 8.19129 12.4333 7.62868 11.8707C7.06607 11.3081 6.75 10.545 6.75 9.74939ZM15.915 15.9753C15.0785 14.7632 13.9024 13.8255 12.5344 13.28C13.2692 12.7012 13.8054 11.9079 14.0684 11.0102C14.3315 10.1126 14.3082 9.15529 14.002 8.27146C13.6957 7.38764 13.1216 6.62122 12.3596 6.07879C11.5975 5.53635 10.6854 5.24487 9.75 5.24487C8.81462 5.24487 7.90248 5.53635 7.14044 6.07879C6.37839 6.62122 5.80432 7.38764 5.49805 8.27146C5.19179 9.15529 5.16855 10.1126 5.43157 11.0102C5.69459 11.9079 6.2308 12.7012 6.96563 13.28C5.59765 13.8255 4.42147 14.7632 3.585 15.9753C2.52804 14.7867 1.8372 13.3179 1.59567 11.7458C1.35415 10.1737 1.57224 8.56523 2.22368 7.11417C2.87512 5.66311 3.93213 4.43131 5.26745 3.56708C6.60276 2.70285 8.15943 2.24306 9.75 2.24306C11.3406 2.24306 12.8973 2.70285 14.2326 3.56708C15.5679 4.43131 16.6249 5.66311 17.2763 7.11417C17.9278 8.56523 18.1459 10.1737 17.9043 11.7458C17.6628 13.3179 16.972 14.7867 15.915 15.9753Z" fill="black"/>
</svg>
